<svg width="48" height="48" viewBox="0 0 48 48" fill="none" xmlns="http://www.w3.org/2000/svg">
<path d="M40.5919 20.9081L25.5919 5.90811C25.3828 5.69835 25.1345 5.53192 24.861 5.41836C24.5875 5.3048 24.2943 5.24634 23.9981 5.24634C23.702 5.24634 23.4088 5.3048 23.1353 5.41836C22.8618 5.53192 22.6134 5.69835 22.4044 5.90811L7.40437 20.9081C6.9839 21.331 6.74853 21.9036 6.75 22.5V40.5C6.75 40.6989 6.82902 40.8897 6.96967 41.0303C7.11032 41.171 7.30109 41.25 7.5 41.25H19.5C19.6989 41.25 19.8897 41.171 20.0303 41.0303C20.171 40.8897 20.25 40.6989 20.25 40.5V29.25H27.75V40.5C27.75 40.6989 27.829 40.8897 27.9697 41.0303C28.1103 41.171 28.3011 41.25 28.5 41.25H40.5C40.6989 41.25 40.8897 41.171 41.0303 41.0303C41.171 40.8897 41.25 40.6989 41.25 40.5V22.5C41.2502 22.2044 41.1922 21.9117 41.0793 21.6386C40.9664 21.3654 40.8008 21.1172 40.5919 20.9081ZM39.75 39.75H29.25V28.5C29.25 28.3011 29.171 28.1103 29.0303 27.9697C28.8897 27.829 28.6989 27.75 28.5 27.75H19.5C19.3011 27.75 19.1103 27.829 18.9697 27.9697C18.829 28.1103 18.75 28.3011 18.75 28.5V39.75H8.25V22.5C8.24992 22.4015 8.26926 22.3039 8.3069 22.2128C8.34454 22.1218 8.39975 22.0391 8.46937 21.9694L23.4694 6.96936C23.539 6.89963 23.6217 6.84431 23.7128 6.80657C23.8038 6.76882 23.9014 6.7494 24 6.7494C24.0986 6.7494 24.1962 6.76882 24.2872 6.80657C24.3783 6.84431 24.461 6.89963 24.5306 6.96936L39.5306 21.9694C39.6003 22.0391 39.6555 22.1218 39.6931 22.2128C39.7307 22.3039 39.7501 22.4015 39.75 22.5V39.75Z" fill="white"/>
</svg>
