<svg width="48" height="48" viewBox="0 0 48 48" fill="none" xmlns="http://www.w3.org/2000/svg">
<path d="M40.9256 38.0931L29.25 18.625V7H31.5C31.6989 7 31.8897 6.92098 32.0303 6.78033C32.171 6.63968 32.25 6.44891 32.25 6.25C32.25 6.05109 32.171 5.86032 32.0303 5.71967C31.8897 5.57902 31.6989 5.5 31.5 5.5H16.5C16.3011 5.5 16.1103 5.57902 15.9697 5.71967C15.829 5.86032 15.75 6.05109 15.75 6.25C15.75 6.44891 15.829 6.63968 15.9697 6.78033C16.1103 6.92098 16.3011 7 16.5 7H18.75V18.625L7.07438 38.0931C6.86987 38.4343 6.75945 38.8235 6.75436 39.2212C6.74927 39.6189 6.8497 40.0109 7.04541 40.3571C7.24112 40.7034 7.52512 40.9916 7.86847 41.1923C8.21183 41.3931 8.60226 41.4993 9 41.5H39C39.3981 41.4999 39.789 41.3942 40.1328 41.1938C40.4767 40.9933 40.7613 40.7051 40.9574 40.3588C41.1536 40.0124 41.2543 39.6202 41.2494 39.2222C41.2445 38.8241 41.134 38.4345 40.9294 38.0931H40.9256ZM20.1431 19.225C20.2125 19.1081 20.2494 18.9747 20.25 18.8387V7H27.75V18.8387C27.7506 18.9747 27.7875 19.1081 27.8569 19.225L35.5444 32.0369C33.1519 32.7756 29.4431 32.9144 24.3413 30.3306C20.9663 28.6169 17.7788 27.8481 14.865 28.0262L20.1431 19.225ZM39.6488 39.625C39.5836 39.7402 39.4886 39.8358 39.3738 39.9018C39.259 39.9678 39.1286 40.0017 38.9963 40H9C8.86722 40 8.73681 39.9648 8.6221 39.898C8.50738 39.8311 8.41247 39.735 8.34707 39.6194C8.28166 39.5039 8.24811 39.373 8.24983 39.2403C8.25155 39.1075 8.28849 38.9776 8.35688 38.8638L13.8938 29.6369C16.8075 29.1812 20.0906 29.8638 23.6569 31.6694C27.1013 33.4113 30 34 32.3288 34C33.6906 34.009 35.0444 33.7898 36.3337 33.3512L39.6394 38.86C39.711 38.9744 39.7498 39.1062 39.7514 39.2412C39.7531 39.3761 39.7176 39.5089 39.6488 39.625Z" fill="white"/>
</svg>
