<svg width="48" height="48" viewBox="0 0 48 48" fill="none" xmlns="http://www.w3.org/2000/svg">
<path d="M42.0919 14.2875L33.7125 5.90811C33.5035 5.69835 33.2551 5.53192 32.9816 5.41836C32.7081 5.3048 32.4149 5.24634 32.1188 5.24634C31.8226 5.24634 31.5294 5.3048 31.2559 5.41836C30.9824 5.53192 30.734 5.69835 30.525 5.90811L24.9694 11.4694L7.41 29.0306C7.20017 29.2387 7.03378 29.4864 6.92048 29.7594C6.80718 30.0323 6.74923 30.3251 6.75 30.6206V39C6.75 39.5967 6.98705 40.169 7.40901 40.591C7.83097 41.0129 8.40326 41.25 9 41.25H17.3794C17.9756 41.25 18.5475 41.0133 18.9694 40.5919L42.09 17.4694C42.2998 17.2603 42.4662 17.0119 42.5798 16.7385C42.6933 16.465 42.7518 16.1717 42.7518 15.8756C42.7518 15.5795 42.6933 15.2863 42.5798 15.0128C42.4662 14.7393 42.2998 14.4909 42.09 14.2819L42.0919 14.2875ZM17.9044 39.5306C17.765 39.6699 17.5764 39.7487 17.3794 39.75H9C8.80109 39.75 8.61032 39.671 8.46967 39.5303C8.32902 39.3897 8.25 39.1989 8.25 39V30.6206C8.24992 30.5221 8.26926 30.4245 8.3069 30.3335C8.34454 30.2424 8.39975 30.1597 8.46937 30.09L25.5 13.0594L34.9388 22.5L17.9044 39.5306ZM41.0306 16.4081L36 21.4387L26.5613 12L31.59 6.96936C31.6597 6.89963 31.7424 6.84431 31.8334 6.80657C31.9245 6.76882 32.0221 6.7494 32.1206 6.7494C32.2192 6.7494 32.3168 6.76882 32.4078 6.80657C32.4989 6.84431 32.5816 6.89963 32.6513 6.96936L41.0306 15.3469C41.1004 15.4165 41.1557 15.4992 41.1934 15.5903C41.2312 15.6813 41.2506 15.7789 41.2506 15.8775C41.2506 15.976 41.2312 16.0736 41.1934 16.1647C41.1557 16.2557 41.1004 16.3385 41.0306 16.4081Z" fill="white"/>
</svg>
