<svg width="48" height="48" viewBox="0 0 48 48" fill="none" xmlns="http://www.w3.org/2000/svg">
<path d="M12.48 17.0756L4.17187 24L12.48 30.9244C12.5982 31.0231 12.6831 31.1558 12.7233 31.3045C12.7634 31.4531 12.7568 31.6106 12.7044 31.7554C12.652 31.9001 12.5563 32.0253 12.4302 32.1138C12.3042 32.2023 12.154 32.2498 12 32.25C11.8244 32.2508 11.6542 32.189 11.52 32.0756L2.52 24.5756C2.43572 24.5052 2.36793 24.4172 2.32141 24.3177C2.2749 24.2183 2.25079 24.1098 2.25079 24C2.25079 23.8902 2.2749 23.7817 2.32141 23.6823C2.36793 23.5828 2.43572 23.4948 2.52 23.4244L11.52 15.9244C11.6736 15.8056 11.8672 15.751 12.0602 15.772C12.2532 15.7931 12.4306 15.8882 12.5549 16.0373C12.6792 16.1864 12.7409 16.3779 12.7269 16.5716C12.713 16.7652 12.6245 16.9459 12.48 17.0756ZM45.48 23.4244L36.48 15.9244C36.405 15.857 36.3172 15.8055 36.2218 15.7728C36.1264 15.7402 36.0255 15.7271 35.9249 15.7343C35.8244 15.7416 35.7263 15.769 35.6366 15.815C35.5469 15.861 35.4674 15.9247 35.4029 16.0021C35.3383 16.0795 35.29 16.1691 35.2609 16.2656C35.2318 16.3621 35.2224 16.4635 35.2333 16.5637C35.2442 16.664 35.2753 16.7609 35.3245 16.8489C35.3738 16.9368 35.4403 17.014 35.52 17.0756L43.8281 24L35.52 30.9244C35.4403 30.9861 35.3738 31.0632 35.3245 31.1511C35.2753 31.2391 35.2442 31.3361 35.2333 31.4363C35.2224 31.5365 35.2318 31.6379 35.2609 31.7344C35.29 31.8309 35.3383 31.9205 35.4029 31.9979C35.4674 32.0754 35.5469 32.139 35.6366 32.185C35.7263 32.231 35.8244 32.2584 35.9249 32.2657C36.0255 32.2729 36.1264 32.2598 36.2218 32.2272C36.3172 32.1945 36.405 32.143 36.48 32.0756L45.48 24.5756C45.5643 24.5052 45.6321 24.4172 45.6786 24.3177C45.7251 24.2183 45.7492 24.1098 45.7492 24C45.7492 23.8902 45.7251 23.7817 45.6786 23.6823C45.6321 23.5828 45.5643 23.4948 45.48 23.4244ZM30.2569 6.79501C30.1643 6.76123 30.066 6.74603 29.9675 6.75027C29.8691 6.75451 29.7724 6.77811 29.6831 6.81973C29.5937 6.86135 29.5135 6.92016 29.4469 6.99281C29.3803 7.06546 29.3287 7.15052 29.295 7.24313L17.295 40.2431C17.2612 40.3357 17.246 40.434 17.2503 40.5325C17.2545 40.631 17.2781 40.7276 17.3197 40.8169C17.3613 40.9063 17.4202 40.9865 17.4928 41.0531C17.5655 41.1197 17.6505 41.1713 17.7431 41.205C17.8256 41.2345 17.9124 41.2497 18 41.25C18.1539 41.2501 18.3041 41.2028 18.4302 41.1146C18.5564 41.0264 18.6523 40.9015 18.705 40.7569L30.705 7.75688C30.7388 7.6643 30.754 7.56598 30.7497 7.46752C30.7455 7.36906 30.7219 7.27241 30.6803 7.18308C30.6387 7.09375 30.5798 7.01349 30.5072 6.94691C30.4345 6.88032 30.3495 6.8287 30.2569 6.79501Z" fill="white"/>
</svg>
