<svg width="48" height="48" viewBox="0 0 48 48" fill="none" xmlns="http://www.w3.org/2000/svg">
<path d="M12.4799 17.0761L4.17182 24.0004L12.4799 30.9248C12.5981 31.0235 12.6831 31.1562 12.7232 31.3049C12.7634 31.4536 12.7568 31.611 12.7044 31.7558C12.6519 31.9006 12.5562 32.0257 12.4302 32.1142C12.3042 32.2027 12.1539 32.2503 11.9999 32.2504C11.8243 32.2512 11.6541 32.1894 11.5199 32.0761L2.51995 24.5761C2.43567 24.5057 2.36788 24.4176 2.32136 24.3182C2.27484 24.2187 2.25073 24.1102 2.25073 24.0004C2.25073 23.8906 2.27484 23.7822 2.32136 23.6827C2.36788 23.5832 2.43567 23.4952 2.51995 23.4248L11.5199 15.9248C11.6735 15.806 11.8672 15.7514 12.0602 15.7725C12.2532 15.7935 12.4305 15.8886 12.5548 16.0377C12.6792 16.1868 12.7409 16.3784 12.7269 16.572C12.7129 16.7656 12.6244 16.9463 12.4799 17.0761ZM45.4799 23.4248L36.4799 15.9248C36.4049 15.8575 36.3171 15.8059 36.2218 15.7733C36.1264 15.7406 36.0254 15.7275 35.9249 15.7348C35.8243 15.742 35.7263 15.7695 35.6366 15.8155C35.5469 15.8615 35.4674 15.9251 35.4028 16.0025C35.3383 16.0799 35.29 16.1696 35.2608 16.2661C35.2317 16.3626 35.2223 16.464 35.2333 16.5642C35.2442 16.6644 35.2752 16.7614 35.3245 16.8493C35.3737 16.9373 35.4402 17.0144 35.5199 17.0761L43.8281 24.0004L35.5199 30.9248C35.4402 30.9865 35.3737 31.0636 35.3245 31.1516C35.2752 31.2395 35.2442 31.3365 35.2333 31.4367C35.2223 31.5369 35.2317 31.6383 35.2608 31.7348C35.29 31.8313 35.3383 31.9209 35.4028 31.9984C35.4674 32.0758 35.5469 32.1394 35.6366 32.1854C35.7263 32.2314 35.8243 32.2588 35.9249 32.2661C36.0254 32.2734 36.1264 32.2603 36.2218 32.2276C36.3171 32.195 36.4049 32.1434 36.4799 32.0761L45.4799 24.5761C45.5642 24.5057 45.632 24.4176 45.6785 24.3182C45.7251 24.2187 45.7492 24.1102 45.7492 24.0004C45.7492 23.8906 45.7251 23.7822 45.6785 23.6827C45.632 23.5832 45.5642 23.4952 45.4799 23.4248ZM30.2568 6.79544C30.1642 6.76166 30.0659 6.74645 29.9675 6.7507C29.869 6.75494 29.7723 6.77854 29.683 6.82016C29.5937 6.86178 29.5134 6.92059 29.4468 6.99324C29.3803 7.06589 29.3286 7.15095 29.2949 7.24356L17.2949 40.2436C17.2612 40.3361 17.246 40.4345 17.2502 40.5329C17.2544 40.6314 17.2781 40.728 17.3197 40.8174C17.3613 40.9067 17.4201 40.9869 17.4928 41.0535C17.5654 41.1201 17.6505 41.1717 17.7431 41.2054C17.8255 41.2349 17.9124 41.2501 17.9999 41.2504C18.1539 41.2505 18.3041 41.2032 18.4302 41.115C18.5563 41.0268 18.6522 40.9019 18.7049 40.7573L30.7049 7.75731C30.7387 7.66473 30.7539 7.5664 30.7497 7.46795C30.7454 7.36949 30.7218 7.27283 30.6802 7.1835C30.6386 7.09417 30.5798 7.01392 30.5071 6.94733C30.4345 6.88075 30.3494 6.82913 30.2568 6.79544Z" fill="white"/>
</svg>
