<svg width="48" height="48" viewBox="0 0 48 48" fill="none" xmlns="http://www.w3.org/2000/svg">
<path d="M40.5 6.75H16.5C16.3011 6.75 16.1103 6.82902 15.9697 6.96967C15.829 7.11032 15.75 7.30109 15.75 7.5V15.75H7.5C7.30109 15.75 7.11032 15.829 6.96967 15.9697C6.82902 16.1103 6.75 16.3011 6.75 16.5V40.5C6.75 40.6989 6.82902 40.8897 6.96967 41.0303C7.11032 41.171 7.30109 41.25 7.5 41.25H31.5C31.6989 41.25 31.8897 41.171 32.0303 41.0303C32.171 40.8897 32.25 40.6989 32.25 40.5V32.25H40.5C40.6989 32.25 40.8897 32.171 41.0303 32.0303C41.171 31.8897 41.25 31.6989 41.25 31.5V7.5C41.25 7.30109 41.171 7.11032 41.0303 6.96967C40.8897 6.82902 40.6989 6.75 40.5 6.75ZM30.75 39.75H8.25V17.25H30.75V39.75ZM39.75 30.75H32.25V16.5C32.25 16.3011 32.171 16.1103 32.0303 15.9697C31.8897 15.829 31.6989 15.75 31.5 15.75H17.25V8.25H39.75V30.75Z" fill="white"/>
</svg>
