<svg width="64" height="64" viewBox="0 0 64 64" fill="none" xmlns="http://www.w3.org/2000/svg">
<path d="M52.7075 17.2925L42.7075 7.2925C42.6146 7.19967 42.5042 7.12605 42.3829 7.07586C42.2615 7.02568 42.1314 6.9999 42 7H22C21.2044 7 20.4413 7.31607 19.8787 7.87868C19.3161 8.44129 19 9.20435 19 10V15H14C13.2044 15 12.4413 15.3161 11.8787 15.8787C11.3161 16.4413 11 17.2044 11 18V54C11 54.7957 11.3161 55.5587 11.8787 56.1213C12.4413 56.6839 13.2044 57 14 57H42C42.7956 57 43.5587 56.6839 44.1213 56.1213C44.6839 55.5587 45 54.7957 45 54V49H50C50.7957 49 51.5587 48.6839 52.1213 48.1213C52.6839 47.5587 53 46.7957 53 46V18C53.0001 17.8686 52.9743 17.7385 52.9241 17.6171C52.8739 17.4958 52.8003 17.3854 52.7075 17.2925ZM43 54C43 54.2652 42.8946 54.5196 42.7071 54.7071C42.5196 54.8946 42.2652 55 42 55H14C13.7348 55 13.4804 54.8946 13.2929 54.7071C13.1054 54.5196 13 54.2652 13 54V18C13 17.7348 13.1054 17.4804 13.2929 17.2929C13.4804 17.1054 13.7348 17 14 17H33.585L43 26.415V54ZM51 46C51 46.2652 50.8946 46.5196 50.7071 46.7071C50.5196 46.8946 50.2652 47 50 47H45V26C45.0001 25.8686 44.9743 25.7385 44.9241 25.6171C44.8739 25.4958 44.8003 25.3854 44.7075 25.2925L34.7075 15.2925C34.6146 15.1997 34.5042 15.1261 34.3829 15.0759C34.2615 15.0257 34.1314 14.9999 34 15H21V10C21 9.73478 21.1054 9.48043 21.2929 9.29289C21.4804 9.10536 21.7348 9 22 9H41.585L51 18.415V46ZM35 38C35 38.2652 34.8946 38.5196 34.7071 38.7071C34.5196 38.8946 34.2652 39 34 39H22C21.7348 39 21.4804 38.8946 21.2929 38.7071C21.1054 38.5196 21 38.2652 21 38C21 37.7348 21.1054 37.4804 21.2929 37.2929C21.4804 37.1054 21.7348 37 22 37H34C34.2652 37 34.5196 37.1054 34.7071 37.2929C34.8946 37.4804 35 37.7348 35 38ZM35 46C35 46.2652 34.8946 46.5196 34.7071 46.7071C34.5196 46.8946 34.2652 47 34 47H22C21.7348 47 21.4804 46.8946 21.2929 46.7071C21.1054 46.5196 21 46.2652 21 46C21 45.7348 21.1054 45.4804 21.2929 45.2929C21.4804 45.1054 21.7348 45 22 45H34C34.2652 45 34.5196 45.1054 34.7071 45.2929C34.8946 45.4804 35 45.7348 35 46Z" fill="white"/>
</svg>
