<svg width="48" height="48" viewBox="0 0 48 48" fill="none" xmlns="http://www.w3.org/2000/svg">
<path d="M42.0919 14.2872L33.7125 5.90787C33.5035 5.69811 33.2551 5.53168 32.9816 5.41811C32.7081 5.30455 32.4149 5.24609 32.1188 5.24609C31.8226 5.24609 31.5294 5.30455 31.2559 5.41811C30.9824 5.53168 30.734 5.69811 30.525 5.90787L24.9694 11.4691L7.41001 29.0304C7.20018 29.2385 7.03379 29.4862 6.92049 29.7591C6.80719 30.0321 6.74924 30.3248 6.75001 30.6204V38.9997C6.75001 39.5965 6.98706 40.1688 7.40902 40.5907C7.83097 41.0127 8.40327 41.2497 9.00001 41.2497H17.3794C17.9757 41.2497 18.5475 41.013 18.9694 40.5916L42.09 17.4691C42.2998 17.2601 42.4662 17.0117 42.5798 16.7382C42.6933 16.4647 42.7518 16.1715 42.7518 15.8754C42.7518 15.5792 42.6933 15.286 42.5798 15.0125C42.4662 14.739 42.2998 14.4907 42.09 14.2816L42.0919 14.2872ZM17.9044 39.5304C17.765 39.6696 17.5764 39.7484 17.3794 39.7497H9.00001C8.8011 39.7497 8.61033 39.6707 8.46968 39.5301C8.32903 39.3894 8.25001 39.1987 8.25001 38.9997V30.6204C8.24993 30.5218 8.26926 30.4243 8.30691 30.3332C8.34455 30.2422 8.39976 30.1594 8.46938 30.0897L25.5 13.0591L34.9388 22.4997L17.9044 39.5304ZM41.0306 16.4079L36 21.4385L26.5613 11.9997L31.59 6.96912C31.6597 6.89939 31.7424 6.84407 31.8334 6.80632C31.9245 6.76858 32.0221 6.74915 32.1206 6.74915C32.2192 6.74915 32.3168 6.76858 32.4078 6.80632C32.4989 6.84407 32.5816 6.89939 32.6513 6.96912L41.0306 15.3466C41.1004 15.4163 41.1557 15.499 41.1934 15.59C41.2312 15.6811 41.2506 15.7787 41.2506 15.8772C41.2506 15.9758 41.2312 16.0734 41.1934 16.1644C41.1557 16.2555 41.1004 16.3382 41.0306 16.4079Z" fill="white"/>
</svg>
