<svg width="48" height="48" viewBox="0 0 48 48" fill="none" xmlns="http://www.w3.org/2000/svg">
<path d="M40.9256 38.0931L29.25 18.625V7H31.5C31.6989 7 31.8897 6.92098 32.0303 6.78033C32.171 6.63968 32.25 6.44891 32.25 6.25C32.25 6.05109 32.171 5.86032 32.0303 5.71967C31.8897 5.57902 31.6989 5.5 31.5 5.5H16.5C16.3011 5.5 16.1103 5.57902 15.9696 5.71967C15.829 5.86032 15.75 6.05109 15.75 6.25C15.75 6.44891 15.829 6.63968 15.9696 6.78033C16.1103 6.92098 16.3011 7 16.5 7H18.75V18.625L7.07435 38.0931C6.86984 38.4343 6.75942 38.8235 6.75433 39.2212C6.74925 39.6189 6.84967 40.0109 7.04538 40.3571C7.24109 40.7034 7.52509 40.9916 7.86845 41.1923C8.2118 41.3931 8.60224 41.4993 8.99997 41.5H39C39.398 41.4999 39.7889 41.3942 40.1328 41.1938C40.4767 40.9933 40.7612 40.7051 40.9574 40.3588C41.1535 40.0124 41.2543 39.6202 41.2494 39.2222C41.2444 38.8241 41.134 38.4345 40.9293 38.0931H40.9256ZM20.1431 19.225C20.2125 19.1081 20.2494 18.9747 20.25 18.8387V7H27.75V18.8387C27.7506 18.9747 27.7875 19.1081 27.8569 19.225L35.5443 32.0369C33.1518 32.7756 29.4431 32.9144 24.3412 30.3306C20.9662 28.6169 17.7787 27.8481 14.865 28.0262L20.1431 19.225ZM39.6487 39.625C39.5835 39.7402 39.4886 39.8358 39.3738 39.9018C39.259 39.9678 39.1286 40.0017 38.9962 40H8.99997C8.8672 40 8.73678 39.9648 8.62207 39.898C8.50735 39.8311 8.41244 39.735 8.34704 39.6194C8.28164 39.5039 8.24808 39.373 8.2498 39.2403C8.25153 39.1075 8.28847 38.9776 8.35685 38.8638L13.8937 29.6369C16.8075 29.1812 20.0906 29.8638 23.6568 31.6694C27.1012 33.4113 30 34 32.3287 34C33.6906 34.009 35.0443 33.7898 36.3337 33.3512L39.6394 38.86C39.711 38.9744 39.7498 39.1062 39.7514 39.2412C39.7531 39.3761 39.7175 39.5089 39.6487 39.625Z" fill="white"/>
</svg>
