<svg width="48" height="48" viewBox="0 0 48 48" fill="none" xmlns="http://www.w3.org/2000/svg">
<path d="M40.5919 20.9079L25.5919 5.90787C25.3829 5.69811 25.1345 5.53168 24.861 5.41811C24.5875 5.30455 24.2943 5.24609 23.9981 5.24609C23.702 5.24609 23.4088 5.30455 23.1353 5.41811C22.8618 5.53168 22.6134 5.69811 22.4044 5.90787L7.40438 20.9079C6.98391 21.3308 6.74854 21.9034 6.75001 22.4997V40.4997C6.75001 40.6987 6.82902 40.8894 6.96968 41.0301C7.11033 41.1707 7.30109 41.2497 7.50001 41.2497H19.5C19.6989 41.2497 19.8897 41.1707 20.0303 41.0301C20.171 40.8894 20.25 40.6987 20.25 40.4997V29.2497H27.75V40.4997C27.75 40.6987 27.829 40.8894 27.9697 41.0301C28.1103 41.1707 28.3011 41.2497 28.5 41.2497H40.5C40.6989 41.2497 40.8897 41.1707 41.0303 41.0301C41.171 40.8894 41.25 40.6987 41.25 40.4997V22.4997C41.2502 22.2042 41.1922 21.9115 41.0793 21.6383C40.9664 21.3652 40.8008 21.117 40.5919 20.9079ZM39.75 39.7497H29.25V28.4997C29.25 28.3008 29.171 28.1101 29.0303 27.9694C28.8897 27.8288 28.6989 27.7497 28.5 27.7497H19.5C19.3011 27.7497 19.1103 27.8288 18.9697 27.9694C18.829 28.1101 18.75 28.3008 18.75 28.4997V39.7497H8.25001V22.4997C8.24993 22.4012 8.26926 22.3037 8.3069 22.2126C8.34455 22.1216 8.39976 22.0388 8.46938 21.9691L23.4694 6.96912C23.539 6.89939 23.6218 6.84407 23.7128 6.80632C23.8039 6.76858 23.9014 6.74915 24 6.74915C24.0986 6.74915 24.1962 6.76858 24.2872 6.80632C24.3783 6.84407 24.461 6.89939 24.5306 6.96912L39.5306 21.9691C39.6003 22.0388 39.6555 22.1216 39.6931 22.2126C39.7308 22.3037 39.7501 22.4012 39.75 22.4997V39.7497Z" fill="white"/>
</svg>
