<svg width="48" height="48" viewBox="0 0 48 48" fill="none" xmlns="http://www.w3.org/2000/svg">
<path d="M40.5 8.49609H24.75V4.74609C24.75 4.54718 24.671 4.35642 24.5303 4.21576C24.3897 4.07511 24.1989 3.99609 24 3.99609C23.8011 3.99609 23.6103 4.07511 23.4697 4.21576C23.329 4.35642 23.25 4.54718 23.25 4.74609V8.49609H7.5C6.90326 8.49609 6.33097 8.73315 5.90901 9.1551C5.48705 9.57706 5.25 10.1494 5.25 10.7461V33.2461C5.25 33.8428 5.48705 34.4151 5.90901 34.8371C6.33097 35.259 6.90326 35.4961 7.5 35.4961H16.44L11.415 41.7773C11.3498 41.8537 11.3005 41.9425 11.2703 42.0383C11.24 42.134 11.2292 42.2349 11.2387 42.335C11.2481 42.435 11.2776 42.5321 11.3253 42.6205C11.373 42.7089 11.438 42.7868 11.5164 42.8497C11.5948 42.9125 11.685 42.9589 11.7817 42.9862C11.8784 43.0135 11.9796 43.021 12.0792 43.0085C12.1789 42.9959 12.275 42.9634 12.3619 42.913C12.4488 42.8625 12.5247 42.7952 12.585 42.7148L18.36 35.4961H29.64L35.415 42.7148C35.5415 42.863 35.7208 42.9562 35.9148 42.9745C36.1088 42.9928 36.3023 42.9349 36.4543 42.8131C36.6064 42.6913 36.7051 42.515 36.7295 42.3217C36.7538 42.1284 36.702 41.9331 36.585 41.7773L31.56 35.4961H40.5C41.0967 35.4961 41.669 35.259 42.091 34.8371C42.5129 34.4151 42.75 33.8428 42.75 33.2461V10.7461C42.75 10.1494 42.5129 9.57706 42.091 9.1551C41.669 8.73315 41.0967 8.49609 40.5 8.49609ZM41.25 33.2461C41.25 33.445 41.171 33.6358 41.0303 33.7764C40.8897 33.9171 40.6989 33.9961 40.5 33.9961H7.5C7.30109 33.9961 7.11032 33.9171 6.96967 33.7764C6.82902 33.6358 6.75 33.445 6.75 33.2461V10.7461C6.75 10.5472 6.82902 10.3564 6.96967 10.2158C7.11032 10.0751 7.30109 9.99609 7.5 9.99609H40.5C40.6989 9.99609 40.8897 10.0751 41.0303 10.2158C41.171 10.3564 41.25 10.5472 41.25 10.7461V33.2461ZM18.75 22.7461V27.2461C18.75 27.445 18.671 27.6358 18.5303 27.7764C18.3897 27.9171 18.1989 27.9961 18 27.9961C17.8011 27.9961 17.6103 27.9171 17.4697 27.7764C17.329 27.6358 17.25 27.445 17.25 27.2461V22.7461C17.25 22.5472 17.329 22.3564 17.4697 22.2158C17.6103 22.0751 17.8011 21.9961 18 21.9961C18.1989 21.9961 18.3897 22.0751 18.5303 22.2158C18.671 22.3564 18.75 22.5472 18.75 22.7461ZM24.75 19.7461V27.2461C24.75 27.445 24.671 27.6358 24.5303 27.7764C24.3897 27.9171 24.1989 27.9961 24 27.9961C23.8011 27.9961 23.6103 27.9171 23.4697 27.7764C23.329 27.6358 23.25 27.445 23.25 27.2461V19.7461C23.25 19.5472 23.329 19.3564 23.4697 19.2158C23.6103 19.0751 23.8011 18.9961 24 18.9961C24.1989 18.9961 24.3897 19.0751 24.5303 19.2158C24.671 19.3564 24.75 19.5472 24.75 19.7461ZM30.75 16.7461V27.2461C30.75 27.445 30.671 27.6358 30.5303 27.7764C30.3897 27.9171 30.1989 27.9961 30 27.9961C29.8011 27.9961 29.6103 27.9171 29.4697 27.7764C29.329 27.6358 29.25 27.445 29.25 27.2461V16.7461C29.25 16.5472 29.329 16.3564 29.4697 16.2158C29.6103 16.0751 29.8011 15.9961 30 15.9961C30.1989 15.9961 30.3897 16.0751 30.5303 16.2158C30.671 16.3564 30.75 16.5472 30.75 16.7461Z" fill="white"/>
</svg>
