<svg width="48" height="48" viewBox="0 0 48 48" fill="none" xmlns="http://www.w3.org/2000/svg">
<path d="M40.5919 14.0306L33.9694 7.40813C33.7609 7.19889 33.5131 7.03301 33.2402 6.92005C32.9673 6.8071 32.6747 6.7493 32.3794 6.75001H9C8.40326 6.75001 7.83097 6.98706 7.40901 7.40902C6.98705 7.83097 6.75 8.40327 6.75 9.00001V39C6.75 39.5967 6.98705 40.169 7.40901 40.591C7.83097 41.013 8.40326 41.25 9 41.25H39C39.5967 41.25 40.169 41.013 40.591 40.591C41.0129 40.169 41.25 39.5967 41.25 39V15.6206C41.2507 15.3253 41.1929 15.0327 41.08 14.7598C40.967 14.4869 40.8011 14.2391 40.5919 14.0306ZM32.25 39.75H15.75V28.5C15.75 28.3011 15.829 28.1103 15.9697 27.9697C16.1103 27.829 16.3011 27.75 16.5 27.75H31.5C31.6989 27.75 31.8897 27.829 32.0303 27.9697C32.171 28.1103 32.25 28.3011 32.25 28.5V39.75ZM39.75 39C39.75 39.1989 39.671 39.3897 39.5303 39.5303C39.3897 39.671 39.1989 39.75 39 39.75H33.75V28.5C33.75 27.9033 33.5129 27.331 33.091 26.909C32.669 26.4871 32.0967 26.25 31.5 26.25H16.5C15.9033 26.25 15.331 26.4871 14.909 26.909C14.4871 27.331 14.25 27.9033 14.25 28.5V39.75H9C8.80109 39.75 8.61032 39.671 8.46967 39.5303C8.32902 39.3897 8.25 39.1989 8.25 39V9.00001C8.25 8.80109 8.32902 8.61033 8.46967 8.46968C8.61032 8.32902 8.80109 8.25001 9 8.25001H32.3794C32.5777 8.25035 32.7678 8.32922 32.9081 8.46938L39.5306 15.0919C39.6708 15.2322 39.7497 15.4223 39.75 15.6206V39ZM29.25 13.5C29.25 13.6989 29.171 13.8897 29.0303 14.0303C28.8897 14.171 28.6989 14.25 28.5 14.25H18C17.8011 14.25 17.6103 14.171 17.4697 14.0303C17.329 13.8897 17.25 13.6989 17.25 13.5C17.25 13.3011 17.329 13.1103 17.4697 12.9697C17.6103 12.829 17.8011 12.75 18 12.75H28.5C28.6989 12.75 28.8897 12.829 29.0303 12.9697C29.171 13.1103 29.25 13.3011 29.25 13.5Z" fill="white"/>
</svg>
