<svg width="48" height="48" viewBox="0 0 48 48" fill="none" xmlns="http://www.w3.org/2000/svg">
<path d="M40.5 8.49695H24.75V4.74695C24.75 4.54804 24.671 4.35727 24.5303 4.21662C24.3897 4.07597 24.1989 3.99695 24 3.99695C23.8011 3.99695 23.6103 4.07597 23.4697 4.21662C23.329 4.35727 23.25 4.54804 23.25 4.74695V8.49695H7.5C6.90326 8.49695 6.33097 8.734 5.90901 9.15596C5.48705 9.57791 5.25 10.1502 5.25 10.7469V33.2469C5.25 33.8437 5.48705 34.416 5.90901 34.8379C6.33097 35.2599 6.90326 35.4969 7.5 35.4969H16.44L11.415 41.7782C11.3498 41.8546 11.3005 41.9433 11.2703 42.0391C11.24 42.1349 11.2292 42.2358 11.2387 42.3358C11.2481 42.4358 11.2776 42.5329 11.3253 42.6213C11.373 42.7098 11.438 42.7877 11.5164 42.8505C11.5948 42.9133 11.685 42.9598 11.7817 42.987C11.8784 43.0143 11.9796 43.0219 12.0792 43.0093C12.1789 42.9967 12.275 42.9643 12.3619 42.9138C12.4488 42.8634 12.5247 42.796 12.585 42.7157L18.36 35.4969H29.64L35.415 42.7157C35.5415 42.8639 35.7208 42.957 35.9148 42.9753C36.1088 42.9937 36.3023 42.9358 36.4543 42.814C36.6064 42.6921 36.7051 42.5159 36.7295 42.3225C36.7538 42.1292 36.702 41.934 36.585 41.7782L31.56 35.4969H40.5C41.0967 35.4969 41.669 35.2599 42.091 34.8379C42.5129 34.416 42.75 33.8437 42.75 33.2469V10.7469C42.75 10.1502 42.5129 9.57791 42.091 9.15596C41.669 8.734 41.0967 8.49695 40.5 8.49695ZM41.25 33.2469C41.25 33.4459 41.171 33.6366 41.0303 33.7773C40.8897 33.9179 40.6989 33.9969 40.5 33.9969H7.5C7.30109 33.9969 7.11032 33.9179 6.96967 33.7773C6.82902 33.6366 6.75 33.4459 6.75 33.2469V10.7469C6.75 10.548 6.82902 10.3573 6.96967 10.2166C7.11032 10.076 7.30109 9.99695 7.5 9.99695H40.5C40.6989 9.99695 40.8897 10.076 41.0303 10.2166C41.171 10.3573 41.25 10.548 41.25 10.7469V33.2469ZM18.75 22.7469V27.2469C18.75 27.4459 18.671 27.6366 18.5303 27.7773C18.3897 27.9179 18.1989 27.9969 18 27.9969C17.8011 27.9969 17.6103 27.9179 17.4697 27.7773C17.329 27.6366 17.25 27.4459 17.25 27.2469V22.7469C17.25 22.548 17.329 22.3573 17.4697 22.2166C17.6103 22.076 17.8011 21.9969 18 21.9969C18.1989 21.9969 18.3897 22.076 18.5303 22.2166C18.671 22.3573 18.75 22.548 18.75 22.7469ZM24.75 19.7469V27.2469C24.75 27.4459 24.671 27.6366 24.5303 27.7773C24.3897 27.9179 24.1989 27.9969 24 27.9969C23.8011 27.9969 23.6103 27.9179 23.4697 27.7773C23.329 27.6366 23.25 27.4459 23.25 27.2469V19.7469C23.25 19.548 23.329 19.3573 23.4697 19.2166C23.6103 19.076 23.8011 18.9969 24 18.9969C24.1989 18.9969 24.3897 19.076 24.5303 19.2166C24.671 19.3573 24.75 19.548 24.75 19.7469ZM30.75 16.7469V27.2469C30.75 27.4459 30.671 27.6366 30.5303 27.7773C30.3897 27.9179 30.1989 27.9969 30 27.9969C29.8011 27.9969 29.6103 27.9179 29.4697 27.7773C29.329 27.6366 29.25 27.4459 29.25 27.2469V16.7469C29.25 16.548 29.329 16.3573 29.4697 16.2166C29.6103 16.076 29.8011 15.9969 30 15.9969C30.1989 15.9969 30.3897 16.076 30.5303 16.2166C30.671 16.3573 30.75 16.548 30.75 16.7469Z" fill="white"/>
</svg>
