<svg width="48" height="48" viewBox="0 0 48 48" fill="none" xmlns="http://www.w3.org/2000/svg">
<path d="M43.5919 14.2875L33.7125 4.40811C33.5035 4.19835 33.2551 4.03192 32.9816 3.91836C32.7081 3.8048 32.4149 3.74634 32.1187 3.74634C31.8226 3.74634 31.5294 3.8048 31.2559 3.91836C30.9824 4.03192 30.734 4.19835 30.525 4.40811L4.40812 30.5306C4.19836 30.7396 4.03193 30.988 3.91837 31.2615C3.80481 31.535 3.74635 31.8282 3.74635 32.1244C3.74635 32.4205 3.80481 32.7137 3.91837 32.9872C4.03193 33.2607 4.19836 33.5091 4.40812 33.7181L14.2875 43.5919C14.4965 43.8016 14.7449 43.9681 15.0184 44.0816C15.2919 44.1952 15.5851 44.2536 15.8812 44.2536C16.1774 44.2536 16.4706 44.1952 16.7441 44.0816C17.0176 43.9681 17.266 43.8016 17.475 43.5919L43.5919 17.4694C44.0138 17.0474 44.2508 16.4751 44.2508 15.8784C44.2508 15.2817 44.0138 14.7094 43.5919 14.2875ZM42.5306 16.4081L16.4081 42.5306C16.2675 42.6709 16.077 42.7496 15.8784 42.7496C15.6798 42.7496 15.4893 42.6709 15.3487 42.5306L5.46937 32.6512C5.32911 32.5106 5.25035 32.3201 5.25035 32.1216C5.25035 31.923 5.32911 31.7325 5.46937 31.5919L12 25.0612L17.4694 30.5306C17.5391 30.6003 17.6218 30.6556 17.7128 30.6933C17.8039 30.731 17.9015 30.7504 18 30.7504C18.0985 30.7504 18.1961 30.731 18.2872 30.6933C18.3782 30.6556 18.4609 30.6003 18.5306 30.5306C18.6003 30.4609 18.6556 30.3782 18.6933 30.2872C18.731 30.1961 18.7504 30.0985 18.7504 30C18.7504 29.9014 18.731 29.8039 18.6933 29.7128C18.6556 29.6218 18.6003 29.539 18.5306 29.4694L13.0594 24L18 19.0612L23.4694 24.5306C23.6101 24.6713 23.801 24.7504 24 24.7504C24.199 24.7504 24.3899 24.6713 24.5306 24.5306C24.6714 24.3899 24.7504 24.199 24.7504 24C24.7504 23.801 24.6714 23.6101 24.5306 23.4694L19.0594 18L24 13.0612L29.4694 18.5306C29.5391 18.6003 29.6218 18.6556 29.7128 18.6933C29.8039 18.731 29.9015 18.7504 30 18.7504C30.0985 18.7504 30.1961 18.731 30.2872 18.6933C30.3782 18.6556 30.4609 18.6003 30.5306 18.5306C30.6003 18.4609 30.6556 18.3782 30.6933 18.2872C30.731 18.1961 30.7504 18.0985 30.7504 18C30.7504 17.9014 30.731 17.8039 30.6933 17.7128C30.6556 17.6218 30.6003 17.539 30.5306 17.4694L25.0612 12L31.5919 5.46936C31.7325 5.3291 31.923 5.25033 32.1216 5.25033C32.3202 5.25033 32.5106 5.3291 32.6512 5.46936L42.5306 15.3487C42.6709 15.4893 42.7496 15.6798 42.7496 15.8784C42.7496 16.077 42.6709 16.2675 42.5306 16.4081Z" fill="white"/>
</svg>
