<svg width="96" height="96" viewBox="0 0 96 96" fill="none" xmlns="http://www.w3.org/2000/svg">
<path d="M96 48C96 48.5535 95.7801 49.0843 95.3887 49.4757C94.9974 49.8671 94.4665 50.087 93.913 50.087H50.087V93.913C50.087 94.4665 49.8671 94.9974 49.4757 95.3887C49.0843 95.7801 48.5535 96 48 96C47.4465 96 46.9157 95.7801 46.5243 95.3887C46.1329 94.9974 45.913 94.4665 45.913 93.913V50.087H2.08696C1.53346 50.087 1.00264 49.8671 0.611256 49.4757C0.219876 49.0843 0 48.5535 0 48C0 47.4465 0.219876 46.9157 0.611256 46.5243C1.00264 46.1329 1.53346 45.913 2.08696 45.913H45.913V2.08696C45.913 1.53346 46.1329 1.00264 46.5243 0.611256C46.9157 0.219876 47.4465 0 48 0C48.5535 0 49.0843 0.219876 49.4757 0.611256C49.8671 1.00264 50.087 1.53346 50.087 2.08696V45.913H93.913C94.4665 45.913 94.9974 46.1329 95.3887 46.5243C95.7801 46.9157 96 47.4465 96 48Z" fill="white"/>
</svg>
