<svg width="192" height="192" viewBox="0 0 192 192" fill="none" xmlns="http://www.w3.org/2000/svg">
<path d="M69.8775 38.1225C69.3145 37.5596 68.9983 36.7961 68.9983 36C68.9983 35.2039 69.3145 34.4405 69.8775 33.8775C70.4404 33.3146 71.2039 32.9984 72 32.9984C72.7961 32.9984 73.5595 33.3146 74.1225 33.8775L134.122 93.8775C134.401 94.1562 134.623 94.487 134.774 94.8512C134.925 95.2154 135.002 95.6058 135.002 96C135.002 96.3943 134.925 96.7847 134.774 97.1489C134.623 97.5131 134.401 97.8439 134.122 98.1225L74.1225 158.123C73.8437 158.401 73.5128 158.622 73.1487 158.773C72.7845 158.924 72.3941 159.002 72 159.002C71.6058 159.002 71.2155 158.924 70.8513 158.773C70.4871 158.622 70.1562 158.401 69.8775 158.123C69.5987 157.844 69.3776 157.513 69.2268 157.149C69.0759 156.785 68.9983 156.394 68.9983 156C68.9983 155.606 69.0759 155.216 69.2268 154.851C69.3776 154.487 69.5987 154.156 69.8775 153.878L127.755 96L69.8775 38.1225Z" fill="white"/>
</svg>
