<svg width="220" height="240" viewBox="0 0 220 240" fill="none" xmlns="http://www.w3.org/2000/svg">
<rect x="19" y="-76" width="400" height="400" fill="url(#paint0_radial_610_979)"/>
<path d="M77.8776 66.1225C77.3147 65.5596 76.9984 64.7961 76.9984 64C76.9984 63.2039 77.3147 62.4405 77.8776 61.8775C78.4405 61.3146 79.204 60.9984 80.0001 60.9984C80.7962 60.9984 81.5597 61.3146 82.1226 61.8775L142.123 121.878C142.402 122.156 142.623 122.487 142.774 122.851C142.925 123.215 143.002 123.606 143.002 124C143.002 124.394 142.925 124.785 142.774 125.149C142.623 125.513 142.402 125.844 142.123 126.123L82.1226 186.123C81.8439 186.401 81.513 186.622 81.1488 186.773C80.7846 186.924 80.3943 187.002 80.0001 187.002C79.6059 187.002 79.2156 186.924 78.8514 186.773C78.4872 186.622 78.1563 186.401 77.8776 186.123C77.5989 185.844 77.3778 185.513 77.2269 185.149C77.0761 184.785 76.9984 184.394 76.9984 184C76.9984 183.606 77.0761 183.216 77.2269 182.851C77.3778 182.487 77.5989 182.156 77.8776 181.878L135.755 124L77.8776 66.1225Z" fill="white"/>
<defs>
<radialGradient id="paint0_radial_610_979" cx="0" cy="0" r="1" gradientUnits="userSpaceOnUse" gradientTransform="translate(219 124) rotate(90) scale(200)">
<stop stop-color="#1175D5"/>
<stop offset="0.5" stop-color="#1175D5" stop-opacity="0.5"/>
<stop offset="1" stop-color="#181818" stop-opacity="0.1"/>
</radialGradient>
</defs>
</svg>
