<svg xmlns="http://www.w3.org/2000/svg" viewBox="0 0 447.7 219.4" width="448" height="219">
  <defs>
    <linearGradient id="bolt_wl" x1="0%" y1="0%" x2="60%" y2="100%">
      <stop offset="0%" stop-color="#1175D5"/>
      <stop offset="100%" stop-color="#00A878"/>
    </linearGradient>
  </defs>
  <g transform="translate(5.40, 174.24) scale(0.18)">
    <path d="M 668 -272.0 Q 668 -188.0 632.5 -124.0 Q 597 -60.0 536.5 -25.5 Q 476 9.0 402 9.0 Q 295 9.0 242 -54.0 V -0.0 H 61 V -742.0 H 251 V -495.0 Q 306 -551.0 402 -551.0 Q 476 -551.0 536.5 -517.0 Q 597 -483.0 632.5 -419.5 Q 668 -356.0 668 -272.0 Z M 476 -272.0 Q 476 -332.0 444.0 -366.0 Q 412 -400.0 362 -400.0 Q 312 -400.0 280.0 -366.0 Q 248 -332.0 248 -272.0 Q 248 -211.0 280.0 -176.5 Q 312 -142.0 362 -142.0 Q 412 -142.0 444.0 -176.5 Q 476 -211.0 476 -272.0 Z" fill="#EAEAEA"/>
  </g>
  <g transform="translate(125.10, 174.24) scale(0.18)">
    <path d="M 242 -477.0 Q 271 -514.0 317.5 -532.5 Q 364 -551.0 424 -551.0 V -380.0 Q 398 -383.0 381 -383.0 Q 320 -383.0 285.5 -350.0 Q 251 -317.0 251 -249.0 V -0.0 H 61 V -542.0 H 242 Z" fill="#EAEAEA"/>
  </g>
  <g transform="translate(201.24, 174.24) scale(0.18)">
    <path d="M 251 -0.0 H 61 V -542.0 H 251 Z M 40 -703.0 Q 40 -746.0 72.0 -775.0 Q 104 -804.0 156 -804.0 Q 208 -804.0 240.0 -776.5 Q 272 -749.0 272 -706.0 Q 272 -661.0 240.0 -631.5 Q 208 -602.0 156 -602.0 Q 104 -602.0 72.0 -631.0 Q 40 -660.0 40 -703.0 Z" fill="#EAEAEA"/>
  </g>
  <g transform="translate(318.78, 174.24) scale(0.18)">
    <path d="M 689 -0.0 H 459 L 307 -190.0 L 251 -133.0 V -0.0 H 61 V -742.0 H 251 V -353.0 L 445 -542.0 H 670 L 445 -310.0 Z" fill="#EAEAEA"/>
  </g>
  <g transform="translate(251.11, 55.35)">
    <path d="M55.61,1.50 L12.19,57.95 L36.25,57.95 L21.57,112.47 L74.58,47.23 L48.08,47.23 L66.37,1.50 Z M70.81,-1.50 L52.52,44.23 L80.89,44.23 L15.01,125.31 L32.34,60.95 L6.10,60.95 L54.13,-1.50 Z" fill="url(#bolt_wl)" fill-rule="evenodd"/>
  </g>
</svg>