<svg width="48" height="48" viewBox="0 0 48 48" fill="none" xmlns="http://www.w3.org/2000/svg">
<path d="M36.0262 7.97812C32.8013 6.21937 28.53 5.25 24 5.25C19.47 5.25 15.1988 6.21937 11.9738 7.97812C8.60438 9.81562 6.75 12.3094 6.75 15V33C6.75 35.6906 8.60438 38.1844 11.9738 40.0219C15.1988 41.7806 19.4738 42.75 24 42.75C28.5262 42.75 32.8013 41.7806 36.0262 40.0219C39.4012 38.1844 41.25 35.6906 41.25 33V15C41.25 12.3094 39.3956 9.81562 36.0262 7.97812ZM39.75 33C39.75 35.1169 38.1731 37.1437 35.3081 38.7056C32.3006 40.3462 28.2844 41.25 24 41.25C19.7156 41.25 15.6994 40.3462 12.6919 38.7056C9.82688 37.1437 8.25 35.1169 8.25 33V28.0275C9.12937 29.1394 10.3819 30.1537 11.9738 31.0275C15.1988 32.7862 19.4738 33.7556 24 33.7556C28.5262 33.7556 32.8013 32.7862 36.0262 31.0275C37.6181 30.1594 38.8706 29.1525 39.75 28.0275V33ZM39.75 24C39.75 26.1169 38.1731 28.1437 35.3081 29.7056C32.3006 31.3462 28.2844 32.25 24 32.25C19.7156 32.25 15.6994 31.3462 12.6919 29.7056C9.82688 28.1437 8.25 26.1169 8.25 24V19.0275C9.12937 20.1394 10.3819 21.1538 11.9738 22.0275C15.1988 23.7863 19.4738 24.7556 24 24.7556C28.5262 24.7556 32.8013 23.7863 36.0262 22.0275C37.6181 21.1594 38.8706 20.1525 39.75 19.0275V24ZM35.3081 20.7056C32.3006 22.3463 28.2844 23.25 24 23.25C19.7156 23.25 15.6994 22.3463 12.6919 20.7056C9.82688 19.1438 8.25 17.1169 8.25 15C8.25 12.8831 9.82688 10.8562 12.6919 9.29437C15.6994 7.65375 19.7156 6.75 24 6.75C28.2844 6.75 32.3006 7.65375 35.3081 9.29437C38.1731 10.8562 39.75 12.8831 39.75 15C39.75 17.1169 38.1731 19.1438 35.3081 20.7056Z" fill="white"/>
</svg>
