<svg width="48" height="48" viewBox="0 0 48 48" fill="none" xmlns="http://www.w3.org/2000/svg">
<path d="M41.25 27V39C41.25 39.1989 41.171 39.3897 41.0303 39.5303C40.8897 39.671 40.6989 39.75 40.5 39.75H7.5C7.30109 39.75 7.11032 39.671 6.96967 39.5303C6.82902 39.3897 6.75 39.1989 6.75 39V27C6.75 26.8011 6.82902 26.6103 6.96967 26.4697C7.11032 26.329 7.30109 26.25 7.5 26.25C7.69891 26.25 7.88968 26.329 8.03033 26.4697C8.17098 26.6103 8.25 26.8011 8.25 27V38.25H39.75V27C39.75 26.8011 39.829 26.6103 39.9697 26.4697C40.1103 26.329 40.3011 26.25 40.5 26.25C40.6989 26.25 40.8897 26.329 41.0303 26.4697C41.171 26.6103 41.25 26.8011 41.25 27ZM23.4694 27.5306C23.539 27.6004 23.6217 27.6557 23.7128 27.6934C23.8038 27.7312 23.9014 27.7506 24 27.7506C24.0986 27.7506 24.1962 27.7312 24.2872 27.6934C24.3783 27.6557 24.461 27.6004 24.5306 27.5306L32.0306 20.0306C32.1003 19.9609 32.1556 19.8782 32.1933 19.7872C32.231 19.6961 32.2504 19.5985 32.2504 19.5C32.2504 19.4015 32.231 19.3039 32.1933 19.2128C32.1556 19.1218 32.1003 19.0391 32.0306 18.9694C31.9609 18.8997 31.8782 18.8444 31.7872 18.8067C31.6961 18.769 31.5985 18.7496 31.5 18.7496C31.4015 18.7496 31.3039 18.769 31.2128 18.8067C31.1218 18.8444 31.0391 18.8997 30.9694 18.9694L24.75 25.1887V6C24.75 5.80109 24.671 5.61032 24.5303 5.46967C24.3897 5.32902 24.1989 5.25 24 5.25C23.8011 5.25 23.6103 5.32902 23.4697 5.46967C23.329 5.61032 23.25 5.80109 23.25 6V25.1887L17.0306 18.9694C16.8899 18.8286 16.699 18.7496 16.5 18.7496C16.301 18.7496 16.1101 18.8286 15.9694 18.9694C15.8286 19.1101 15.7496 19.301 15.7496 19.5C15.7496 19.699 15.8286 19.8899 15.9694 20.0306L23.4694 27.5306Z" fill="white"/>
</svg>
