<svg width="48" height="48" viewBox="0 0 48 48" fill="none" xmlns="http://www.w3.org/2000/svg">
<path d="M39.5306 15.9694L29.0306 5.46938C28.9609 5.39975 28.8782 5.34454 28.7871 5.3069C28.6961 5.26926 28.5985 5.24992 28.5 5.25H10.5C9.90326 5.25 9.33097 5.48705 8.90901 5.90901C8.48705 6.33097 8.25 6.90326 8.25 7.5V40.5C8.25 41.0967 8.48705 41.669 8.90901 42.091C9.33097 42.5129 9.90326 42.75 10.5 42.75H37.5C38.0967 42.75 38.669 42.5129 39.091 42.091C39.5129 41.669 39.75 41.0967 39.75 40.5V16.5C39.7501 16.4015 39.7307 16.3039 39.6931 16.2129C39.6555 16.1218 39.6003 16.0391 39.5306 15.9694ZM29.25 7.80938L37.1887 15.75H29.25V7.80938ZM37.5 41.25H10.5C10.3011 41.25 10.1103 41.171 9.96967 41.0303C9.82902 40.8897 9.75 40.6989 9.75 40.5V7.5C9.75 7.30109 9.82902 7.11032 9.96967 6.96967C10.1103 6.82902 10.3011 6.75 10.5 6.75H27.75V16.5C27.75 16.6989 27.829 16.8897 27.9697 17.0303C28.1103 17.171 28.3011 17.25 28.5 17.25H38.25V40.5C38.25 40.6989 38.171 40.8897 38.0303 41.0303C37.8897 41.171 37.6989 41.25 37.5 41.25Z" fill="white"/>
</svg>
