<svg width="64" height="64" viewBox="0 0 64 64" fill="none" xmlns="http://www.w3.org/2000/svg">
<path d="M50.985 19.0401C51.6378 17.1489 51.8757 15.1393 51.6824 13.148C51.4892 11.1567 50.8693 9.23039 49.865 7.50006C49.7773 7.34819 49.6512 7.22205 49.4994 7.13429C49.3476 7.04653 49.1754 7.00024 49 7.00006C46.7405 6.99364 44.5132 7.53638 42.5099 8.58157C40.5066 9.62676 38.7873 11.1431 37.5 13.0001H30.5C29.2127 11.1431 27.4934 9.62676 25.4901 8.58157C23.4868 7.53638 21.2595 6.99364 19 7.00006C18.8246 7.00024 18.6524 7.04653 18.5006 7.13429C18.3488 7.22205 18.2227 7.34819 18.135 7.50006C17.1307 9.23039 16.5108 11.1567 16.3176 13.148C16.1243 15.1393 16.3622 17.1489 17.015 19.0401C15.7191 21.1319 15.0221 23.5394 15 26.0001V28.0001C15.004 31.4467 16.3749 34.7509 18.812 37.1881C21.2491 39.6252 24.5534 40.9961 28 41.0001H28.3525C27.3068 41.8428 26.463 42.9089 25.8829 44.1201C25.3028 45.3313 25.0011 46.6571 25 48.0001V51.0001H18C16.1435 51.0001 14.363 50.2626 13.0503 48.9498C11.7375 47.6371 11 45.8566 11 44.0001C11 41.6131 10.0518 39.3239 8.36396 37.6361C6.67613 35.9483 4.38695 35.0001 2 35.0001C1.73478 35.0001 1.48043 35.1054 1.29289 35.2929C1.10536 35.4805 1 35.7348 1 36.0001C1 36.2653 1.10536 36.5196 1.29289 36.7072C1.48043 36.8947 1.73478 37.0001 2 37.0001C3.85652 37.0001 5.63699 37.7376 6.94975 39.0503C8.2625 40.3631 9 42.1435 9 44.0001C9 46.387 9.94821 48.6762 11.636 50.364C13.3239 52.0518 15.6131 53.0001 18 53.0001H25V58.0001C25 58.2653 25.1054 58.5196 25.2929 58.7072C25.4804 58.8947 25.7348 59.0001 26 59.0001C26.2652 59.0001 26.5196 58.8947 26.7071 58.7072C26.8946 58.5196 27 58.2653 27 58.0001V48.0001C27 46.1435 27.7375 44.3631 29.0503 43.0503C30.363 41.7376 32.1435 41.0001 34 41.0001C35.8565 41.0001 37.637 41.7376 38.9497 43.0503C40.2625 44.3631 41 46.1435 41 48.0001V58.0001C41 58.2653 41.1054 58.5196 41.2929 58.7072C41.4804 58.8947 41.7348 59.0001 42 59.0001C42.2652 59.0001 42.5196 58.8947 42.7071 58.7072C42.8946 58.5196 43 58.2653 43 58.0001V48.0001C42.9989 46.6571 42.6972 45.3313 42.1171 44.1201C41.537 42.9089 40.6932 41.8428 39.6475 41.0001H40C43.4466 40.9961 46.7509 39.6252 49.188 37.1881C51.6251 34.7509 52.996 31.4467 53 28.0001V26.0001C52.9779 23.5394 52.2809 21.1319 50.985 19.0401ZM51 28.0001C50.9967 30.9164 49.8367 33.7124 47.7745 35.7746C45.7123 37.8368 42.9164 38.9967 40 39.0001H28C25.0836 38.9967 22.2877 37.8368 20.2255 35.7746C18.1633 33.7124 17.0033 30.9164 17 28.0001V26.0001C17.0259 23.7829 17.6956 21.6211 18.9275 19.7776C19.0291 19.6419 19.0946 19.4826 19.1178 19.3147C19.141 19.1468 19.1211 18.9757 19.06 18.8176C18.4487 17.2396 18.1795 15.5498 18.27 13.8599C18.3605 12.1701 18.8087 10.5187 19.585 9.01506C21.5002 9.10394 23.3659 9.65234 25.0246 10.614C26.6833 11.5756 28.0862 12.9222 29.115 14.5401C29.2056 14.6812 29.3302 14.7974 29.4774 14.8778C29.6247 14.9581 29.7898 15.0002 29.9575 15.0001H38.0425C38.2102 15.0002 38.3753 14.9581 38.5226 14.8778C38.6698 14.7974 38.7944 14.6812 38.885 14.5401C39.9138 12.9222 41.3167 11.5756 42.9754 10.614C44.6341 9.65234 46.4998 9.10394 48.415 9.01506C49.1913 10.5187 49.6395 12.1701 49.73 13.8599C49.8205 15.5498 49.5513 17.2396 48.94 18.8176C48.8794 18.9753 48.8597 19.1459 48.8829 19.3134C48.906 19.4808 48.9713 19.6397 49.0725 19.7751C50.3037 21.6199 50.9733 23.7823 51 26.0001V28.0001Z" fill="white"/>
</svg>
